# xmcd
#
# Track frame offsets: 
#        150
#        15935
#        27083
#        50587
#        71301
#        92806
#        108522
#        122996
#        140990
#        157536
#        177835
#        199967
#        217944
#
# Disc length: 3094 seconds
#
# Revision: 0
# Processed by: cddbd v1.5.2PL0 Copyright (c) Steve Scherf et al.
# Submitted via: ExactAudioCopyFreeDBPlugin 1.0
#
DISCID=ac0c140d
DTITLE=Chris Conz Trio - Boogie Waves
DYEAR=2015
DGENRE=Boogie-Woogie
TTITLE0=Boogie Waves
TTITLE1=Movin' and Groovin'
TTITLE2=Robbins Nest
TTITLE3=Wake Up Call
TTITLE4=Night Train
TTITLE5=On The Sunny Side Of The Street
TTITLE6=Oh, Lady Be Good!
TTITLE7=Hermit Blues
TTITLE8=It's All Right With Me
TTITLE9=Jumpin' At The Lake
TTITLE10=Caravan
TTITLE11=Woody's Dance
TTITLE12=S-Train Boogie
EXTD=
EXTT0=
EXTT1=
EXTT2=
EXTT3=
EXTT4=
EXTT5=
EXTT6=
EXTT7=
EXTT8=
EXTT9=
EXTT10=
EXTT11=
EXTT12=
PLAYORDER=
